<mxfile host="app.diagrams.net" modified="2020-12-14T13:39:16.762Z" agent="5.0 (Windows NT 10.0; Win64; x64) AppleWebKit/537.36 (KHTML, like Gecko) Chrome/87.0.4280.88 Safari/537.36" etag="3jyX4_jVsLydkasz2I_p" version="14.0.1" type="github">
  <diagram id="0Gx5WFqJ7TrzvxdM2EcN" name="Page-1">
    <mxGraphModel dx="1038" dy="580" grid="1" gridSize="10" guides="1" tooltips="1" connect="1" arrows="1" fold="1" page="1" pageScale="1" pageWidth="827" pageHeight="1169" math="0" shadow="0">
      <root>
        <mxCell id="0" />
        <mxCell id="1" parent="0" />
        <mxCell id="4hVHOFhDgQAy5ucxcSSK-2" value="" style="verticalLabelPosition=bottom;verticalAlign=top;html=1;shadow=0;dashed=0;strokeWidth=1;shape=mxgraph.android.phone2;strokeColor=#c0c0c0;" vertex="1" parent="1">
          <mxGeometry x="40" y="40" width="330" height="570" as="geometry" />
        </mxCell>
        <mxCell id="4hVHOFhDgQAy5ucxcSSK-4" value="" style="rounded=0;whiteSpace=wrap;html=1;" vertex="1" parent="1">
          <mxGeometry x="50" y="90" width="310" height="470" as="geometry" />
        </mxCell>
        <mxCell id="4hVHOFhDgQAy5ucxcSSK-5" value="" style="rounded=0;whiteSpace=wrap;html=1;fillColor=#ffe6cc;strokeColor=#d79b00;" vertex="1" parent="1">
          <mxGeometry x="60" y="100" width="150" height="120" as="geometry" />
        </mxCell>
        <mxCell id="4hVHOFhDgQAy5ucxcSSK-6" value="&lt;font style=&quot;font-size: 16px&quot;&gt;CV&lt;/font&gt;" style="text;html=1;strokeColor=none;fillColor=none;align=center;verticalAlign=middle;whiteSpace=wrap;rounded=0;" vertex="1" parent="1">
          <mxGeometry x="225" y="110" width="110" height="50" as="geometry" />
        </mxCell>
        <mxCell id="4hVHOFhDgQAy5ucxcSSK-7" value="N A" style="text;html=1;strokeColor=none;fillColor=none;align=center;verticalAlign=middle;whiteSpace=wrap;rounded=0;" vertex="1" parent="1">
          <mxGeometry x="230" y="180" width="100" height="20" as="geometry" />
        </mxCell>
        <mxCell id="4hVHOFhDgQAy5ucxcSSK-8" value="" style="verticalLabelPosition=bottom;verticalAlign=top;html=1;shadow=0;dashed=0;strokeWidth=1;shape=mxgraph.android.phone2;strokeColor=#c0c0c0;" vertex="1" parent="1">
          <mxGeometry x="440" y="40" width="330" height="570" as="geometry" />
        </mxCell>
        <mxCell id="4hVHOFhDgQAy5ucxcSSK-9" value="" style="rounded=0;whiteSpace=wrap;html=1;" vertex="1" parent="1">
          <mxGeometry x="450" y="90" width="310" height="470" as="geometry" />
        </mxCell>
        <mxCell id="4hVHOFhDgQAy5ucxcSSK-11" value="" style="endArrow=none;html=1;" edge="1" parent="1">
          <mxGeometry width="50" height="50" relative="1" as="geometry">
            <mxPoint x="50" y="320" as="sourcePoint" />
            <mxPoint x="360" y="320" as="targetPoint" />
          </mxGeometry>
        </mxCell>
        <mxCell id="4hVHOFhDgQAy5ucxcSSK-12" value="" style="whiteSpace=wrap;html=1;aspect=fixed;" vertex="1" parent="1">
          <mxGeometry x="95" y="240" width="50" height="50" as="geometry" />
        </mxCell>
        <mxCell id="4hVHOFhDgQAy5ucxcSSK-13" value="" style="whiteSpace=wrap;html=1;aspect=fixed;" vertex="1" parent="1">
          <mxGeometry x="180" y="240" width="50" height="50" as="geometry" />
        </mxCell>
        <mxCell id="4hVHOFhDgQAy5ucxcSSK-14" value="" style="whiteSpace=wrap;html=1;aspect=fixed;" vertex="1" parent="1">
          <mxGeometry x="260" y="240" width="50" height="50" as="geometry" />
        </mxCell>
        <mxCell id="4hVHOFhDgQAy5ucxcSSK-15" value="" style="whiteSpace=wrap;html=1;aspect=fixed;fillColor=#d5e8d4;strokeColor=#82b366;" vertex="1" parent="1">
          <mxGeometry x="108.75" y="331.25" width="192.5" height="192.5" as="geometry" />
        </mxCell>
        <mxCell id="4hVHOFhDgQAy5ucxcSSK-17" value="&lt;h1&gt;Heading&lt;/h1&gt;&lt;p&gt;Lorem ipsum dolor sit amet, consectetur adipisicing elit, sed do eiusmod tempor incididunt ut labore et dolore magna aliqua.&lt;/p&gt;" style="text;html=1;strokeColor=none;fillColor=none;spacing=5;spacingTop=-20;whiteSpace=wrap;overflow=hidden;rounded=0;" vertex="1" parent="1">
          <mxGeometry x="470" y="110" width="260" height="120" as="geometry" />
        </mxCell>
        <mxCell id="4hVHOFhDgQAy5ucxcSSK-18" value="" style="rounded=0;whiteSpace=wrap;html=1;fillColor=#f8cecc;strokeColor=#b85450;" vertex="1" parent="1">
          <mxGeometry x="470" y="240" width="270" height="60" as="geometry" />
        </mxCell>
        <mxCell id="4hVHOFhDgQAy5ucxcSSK-19" value="" style="rounded=0;whiteSpace=wrap;html=1;fillColor=#e1d5e7;strokeColor=#9673a6;" vertex="1" parent="1">
          <mxGeometry x="470" y="320" width="120" height="190" as="geometry" />
        </mxCell>
        <mxCell id="4hVHOFhDgQAy5ucxcSSK-20" value="&lt;h1 style=&quot;font-size: 12px;&quot;&gt;&lt;ul style=&quot;font-size: 12px;&quot;&gt;&lt;li style=&quot;font-size: 12px;&quot;&gt;&lt;span style=&quot;font-size: 12px;&quot;&gt;Lorem ipsum dolor sit amet, consectetur adipisicing elit, sed do eiusmod tempor incididunt ut labore et dolore magna aliqua.&lt;/span&gt;&lt;/li&gt;&lt;/ul&gt;&lt;/h1&gt;" style="text;html=1;strokeColor=none;fillColor=none;spacing=5;spacingTop=-20;whiteSpace=wrap;overflow=hidden;rounded=0;verticalAlign=middle;fontSize=12;fontStyle=0" vertex="1" parent="1">
          <mxGeometry x="610" y="312.5" width="120" height="230" as="geometry" />
        </mxCell>
        <mxCell id="4hVHOFhDgQAy5ucxcSSK-21" value="" style="verticalLabelPosition=bottom;verticalAlign=top;html=1;shadow=0;dashed=0;strokeWidth=1;shape=mxgraph.android.phone2;strokeColor=#c0c0c0;direction=south;fontSize=12;" vertex="1" parent="1">
          <mxGeometry x="10" y="630" width="570" height="330" as="geometry" />
        </mxCell>
        <mxCell id="4hVHOFhDgQAy5ucxcSSK-22" value="" style="verticalLabelPosition=bottom;verticalAlign=top;html=1;shadow=0;dashed=0;strokeWidth=2;shape=mxgraph.android.navigation_bar_3_landscape;fillColor=#1A1A1A;strokeColor=#999999;fontSize=12;" vertex="1" parent="1">
          <mxGeometry x="50" y="530" width="310" height="30" as="geometry" />
        </mxCell>
        <mxCell id="4hVHOFhDgQAy5ucxcSSK-23" value="" style="verticalLabelPosition=bottom;verticalAlign=top;html=1;shadow=0;dashed=0;strokeWidth=2;shape=mxgraph.android.navigation_bar_3_landscape;fillColor=#1A1A1A;strokeColor=#999999;fontSize=12;" vertex="1" parent="1">
          <mxGeometry x="450" y="530" width="310" height="30" as="geometry" />
        </mxCell>
        <mxCell id="4hVHOFhDgQAy5ucxcSSK-24" value="" style="rounded=0;whiteSpace=wrap;html=1;fontSize=12;" vertex="1" parent="1">
          <mxGeometry x="60" y="640" width="470" height="310" as="geometry" />
        </mxCell>
        <mxCell id="4hVHOFhDgQAy5ucxcSSK-25" value="" style="rounded=0;whiteSpace=wrap;html=1;fillColor=#ffe6cc;strokeColor=#d79b00;" vertex="1" parent="1">
          <mxGeometry x="70" y="710" width="195" height="170" as="geometry" />
        </mxCell>
        <mxCell id="4hVHOFhDgQAy5ucxcSSK-26" value="&lt;font style=&quot;font-size: 16px&quot;&gt;CV&lt;/font&gt;" style="text;html=1;strokeColor=none;fillColor=none;align=center;verticalAlign=middle;whiteSpace=wrap;rounded=0;" vertex="1" parent="1">
          <mxGeometry x="260" y="720" width="110" height="50" as="geometry" />
        </mxCell>
        <mxCell id="4hVHOFhDgQAy5ucxcSSK-27" value="N A" style="text;html=1;strokeColor=none;fillColor=none;align=center;verticalAlign=middle;whiteSpace=wrap;rounded=0;" vertex="1" parent="1">
          <mxGeometry x="265" y="820" width="100" height="20" as="geometry" />
        </mxCell>
        <mxCell id="4hVHOFhDgQAy5ucxcSSK-28" value="" style="verticalLabelPosition=bottom;verticalAlign=top;html=1;shadow=0;dashed=0;strokeWidth=2;shape=mxgraph.android.navigation_bar_5_vertical;fillColor=#1A1A1A;strokeColor=#999999;fontSize=12;" vertex="1" parent="1">
          <mxGeometry x="500" y="640" width="30" height="310" as="geometry" />
        </mxCell>
        <mxCell id="4hVHOFhDgQAy5ucxcSSK-30" value="" style="whiteSpace=wrap;html=1;aspect=fixed;" vertex="1" parent="1">
          <mxGeometry x="400" y="680" width="50" height="50" as="geometry" />
        </mxCell>
        <mxCell id="4hVHOFhDgQAy5ucxcSSK-31" value="" style="whiteSpace=wrap;html=1;aspect=fixed;" vertex="1" parent="1">
          <mxGeometry x="400" y="770" width="50" height="50" as="geometry" />
        </mxCell>
        <mxCell id="4hVHOFhDgQAy5ucxcSSK-32" value="" style="whiteSpace=wrap;html=1;aspect=fixed;" vertex="1" parent="1">
          <mxGeometry x="400" y="860" width="50" height="50" as="geometry" />
        </mxCell>
      </root>
    </mxGraphModel>
  </diagram>
</mxfile>
